<svg id="arrow-left-svgrepo-com_1_" data-name="arrow-left-svgrepo-com (1)" xmlns="http://www.w3.org/2000/svg" width="15.5" height="13.481" viewBox="0 0 15.5 13.481">
  <path id="Path_3" data-name="Path 3" d="M5,18.75a.74.74,0,0,0,.53-.22l6-6a.75.75,0,0,0,0-1.06l-6-6A.75.75,0,0,0,4.47,6.53L9.94,12,4.47,17.47a.75.75,0,0,0,0,1.06.74.74,0,0,0,.53.22Z" transform="translate(3.75 -5.269)"/>
  <path id="Path_4" data-name="Path 4" d="M5,12.75H19a.75.75,0,0,0,0-1.5H5a.75.75,0,0,0,0,1.5Z" transform="translate(-4.25 -5.269)"/>
</svg>
