<svg xmlns="http://www.w3.org/2000/svg" width="15.5" height="13.481" viewBox="0 0 15.5 13.481">
  <g id="arrow-left-svgrepo-com_1_" data-name="arrow-left-svgrepo-com (1)" transform="translate(-4.25 -5.269)">
    <path id="Path_3" data-name="Path 3" d="M11,18.75a.74.74,0,0,1-.53-.22l-6-6a.75.75,0,0,1,0-1.06l6-6a.75.75,0,0,1,1.06,1.06L6.06,12l5.47,5.47a.75.75,0,0,1,0,1.06.74.74,0,0,1-.53.22Z"/>
    <path id="Path_4" data-name="Path 4" d="M19,12.75H5a.75.75,0,0,1,0-1.5H19a.75.75,0,0,1,0,1.5Z"/>
  </g>
</svg>
